<svg width="30" height="30" viewBox="0 0 30 30" fill="none" xmlns="http://www.w3.org/2000/svg">
<path d="M24.4493 17.5584C24.8243 17.0365 24.9281 16.2405 24.7287 15.4296C24.6555 14.9686 24.6671 14.498 24.7631 14.0412C24.8552 13.3788 24.96 12.6281 24.6558 11.9156C24.5985 11.7642 24.5093 11.627 24.3943 11.5131C24.2793 11.3992 24.1412 11.3114 23.9892 11.2556C23.7199 11.1714 23.4309 11.1742 23.1633 11.2636C22.7415 8.95108 21.4318 6.89534 19.5141 5.53594C19.5047 5.43516 19.493 5.33672 19.4789 5.24297C19.1344 2.85 17.25 1.11328 15 1.11328C14.2739 1.11515 13.5602 1.30144 12.9258 1.65469C12.8307 1.70752 12.7605 1.79598 12.7306 1.90059C12.7007 2.0052 12.7136 2.11739 12.7664 2.2125C12.8193 2.3076 12.9077 2.37783 13.0123 2.40771C13.1169 2.4376 13.2291 2.42471 13.3242 2.37187C13.8357 2.08389 14.413 1.93292 15 1.93359C16.7203 1.93359 18.1828 3.19688 18.5977 4.98984C17.4849 4.41838 16.2521 4.1203 15.0012 4.1203C13.7503 4.1203 12.5174 4.41838 11.4047 4.98984C11.5427 4.38633 11.8133 3.82111 12.1969 3.33516C12.2623 3.24979 12.2916 3.14215 12.2785 3.0354C12.2654 2.92864 12.2109 2.83131 12.1267 2.76434C12.0425 2.69738 11.9354 2.66613 11.8284 2.67733C11.7215 2.68853 11.6232 2.74127 11.5547 2.82422C11.0025 3.52408 10.6458 4.35791 10.5211 5.24063C10.507 5.33672 10.4953 5.43281 10.4883 5.53594H10.4859C8.56823 6.89534 7.25847 8.95108 6.83673 11.2636C6.56906 11.1744 6.28013 11.1716 6.01079 11.2556C5.8587 11.3114 5.72042 11.3993 5.60532 11.5133C5.49022 11.6273 5.40102 11.7648 5.34376 11.9163C5.03907 12.6281 5.14454 13.3788 5.23665 14.0412C5.33264 14.498 5.34432 14.9686 5.2711 15.4296C5.07165 16.2405 5.17618 17.0365 5.55048 17.5584C5.67738 17.7395 5.84313 17.89 6.03561 17.9988C6.2281 18.1076 6.44247 18.1721 6.66305 18.1875C6.68907 18.1896 6.71509 18.1908 6.7418 18.1908C7.14045 18.1576 7.51977 18.0048 7.83001 17.7523C8.12013 18.281 8.46331 18.7789 8.85423 19.2382C7.10199 21.0634 5.93343 23.3693 5.49774 25.8616C5.33856 26.7242 5.25877 27.5995 5.25938 28.4766C5.25944 28.5853 5.30268 28.6896 5.37958 28.7665C5.45649 28.8434 5.56078 28.8867 5.66954 28.8867H24.3305C24.4392 28.8867 24.5435 28.8434 24.6204 28.7665C24.6973 28.6896 24.7406 28.5853 24.7406 28.4766C24.7414 27.5487 24.6521 26.623 24.4741 25.7123C24.4646 25.6588 24.4444 25.6076 24.4148 25.5619C24.3853 25.5162 24.3469 25.4768 24.302 25.4461C24.257 25.4154 24.2064 25.3939 24.1531 25.3829C24.0998 25.3719 24.0448 25.3717 23.9914 25.3822C23.938 25.3927 23.8872 25.4137 23.842 25.444C23.7968 25.4743 23.7581 25.5133 23.7281 25.5587C23.6981 25.6042 23.6775 25.6551 23.6674 25.7086C23.6573 25.7621 23.6579 25.8171 23.6693 25.8703C23.8109 26.5944 23.8928 27.3289 23.9142 28.0664H6.08579C6.10359 27.4967 6.15721 26.9287 6.24634 26.3658C6.64149 26.3857 7.0472 26.4007 7.46837 26.4007C10.6139 26.4007 14.3243 25.695 16.267 22.0648C17.9012 21.7849 19.4096 21.0086 20.587 19.8412C21.4098 20.6972 22.0946 21.6756 22.6172 22.7416C22.6653 22.8392 22.7502 22.9137 22.8532 22.9487C22.9563 22.9837 23.069 22.9763 23.1666 22.9282C23.2642 22.8801 23.3386 22.7952 23.3736 22.6922C23.4086 22.5891 23.4012 22.4764 23.3531 22.3788C22.7864 21.2227 22.0415 20.1629 21.1456 19.2382C21.5364 18.7795 21.8794 18.2821 22.1695 17.7539C22.4803 18.0066 22.8602 18.1594 23.2594 18.1922C23.2861 18.1922 23.3126 18.191 23.3388 18.1891C23.5592 18.1733 23.7733 18.1085 23.9654 17.9993C24.1575 17.8902 24.3228 17.7396 24.4493 17.5584ZM8.28751 9.4125C8.88831 8.10133 9.83462 6.97839 11.025 6.16406H11.0274C11.0766 6.12891 11.1258 6.09844 11.175 6.06562C12.3156 5.33118 13.6434 4.94062 15 4.94062C16.3566 4.94062 17.6845 5.33118 18.825 6.06562C18.8742 6.09844 18.9234 6.12891 18.9727 6.16406C20.1655 6.97726 21.1131 8.10148 21.7125 9.41484V9.41695C20.8787 8.76136 19.8235 8.45394 18.7681 8.55914C17.9402 8.61639 17.135 8.8544 16.4091 9.25641C15.9169 9.49852 15.5285 9.69 15 9.69C14.4715 9.69 14.0829 9.49852 13.5909 9.25641C12.8652 8.85442 12.0601 8.61642 11.2324 8.55914C10.1748 8.45391 9.1176 8.76264 8.28282 9.42047L8.28516 9.41484C8.28579 9.41484 8.28638 9.4146 8.28682 9.41416C8.28726 9.41372 8.28751 9.41312 8.28751 9.4125ZM6.73126 17.3709C6.62908 17.3651 6.52962 17.3358 6.44051 17.2855C6.3514 17.2351 6.27503 17.165 6.21727 17.0805C5.9843 16.7557 5.92712 16.1979 6.06774 15.6251C6.17003 15.0634 6.16382 14.4873 6.04946 13.928C5.96438 13.3174 5.88399 12.7406 6.09821 12.2391C6.17134 12.0684 6.25337 12.0398 6.28032 12.0305C6.42678 12.0025 6.57836 12.0226 6.71251 12.0877C6.67513 12.4384 6.65635 12.791 6.65626 13.1438C6.65266 14.4736 6.92713 15.7896 7.46204 17.0072C6.98438 17.3672 6.77204 17.3737 6.73126 17.3709ZM6.39844 25.5539C6.85494 23.4064 7.89926 21.428 9.41485 19.8396C10.8979 21.32 12.9046 22.1562 15 22.1672C15.0867 22.1672 15.1732 22.1648 15.2599 22.1625C13.2063 25.3737 9.36024 25.6898 6.39844 25.5539ZM15.968 21.2789H15.9656C15.9518 21.2789 15.9382 21.2827 15.9244 21.2852C15.915 21.2876 15.9033 21.2876 15.8939 21.2899C15.5978 21.3276 15.2995 21.3464 15.0009 21.3462C10.8525 21.3462 7.47751 17.6665 7.47751 13.143C7.4772 12.7402 7.50383 12.3377 7.55719 11.9384C7.55954 11.929 7.55954 11.9196 7.56188 11.9102C7.56152 11.9062 7.56233 11.9021 7.56423 11.8985C8.24649 10.0896 9.42868 9.26391 11.1809 9.37734C11.9005 9.42947 12.5999 9.63918 13.2295 9.99164C13.7684 10.3068 14.3763 10.4849 15 10.5103C15.624 10.4852 16.2323 10.3072 16.7714 9.99211C17.4011 9.63962 18.1006 9.4299 18.8203 9.37781C20.573 9.26391 21.754 10.0903 22.4365 11.899C22.4384 11.9042 22.4392 11.9098 22.4388 11.9154C22.4948 12.3224 22.523 12.7327 22.5232 13.1435C22.5234 17.3086 19.6617 20.7586 15.968 21.2789ZM23.9323 15.6251C24.0729 16.1979 24.0157 16.7557 23.7827 17.0805C23.7252 17.1648 23.6493 17.2347 23.5606 17.285C23.4719 17.3354 23.3729 17.3647 23.2711 17.3709C23.2301 17.3742 23.0168 17.3677 22.538 17.0072C23.0729 15.7896 23.3474 14.4736 23.3438 13.1438C23.3436 12.7909 23.3249 12.4383 23.2877 12.0874C23.4219 12.0225 23.5733 12.0025 23.7197 12.0305C23.7466 12.0398 23.8287 12.0684 23.9016 12.2384C24.116 12.7406 24.0356 13.3165 23.9506 13.928C23.8362 14.4873 23.83 15.0634 23.9323 15.6251ZM23.9625 23.8301C24.0274 24.0146 24.0884 24.2013 24.1456 24.39C24.1612 24.4416 24.1665 24.4957 24.1611 24.5493C24.1558 24.6029 24.14 24.6549 24.1146 24.7024C24.0892 24.7499 24.0547 24.7919 24.013 24.826C23.9713 24.8602 23.9234 24.8858 23.8718 24.9014C23.8202 24.917 23.7661 24.9223 23.7125 24.917C23.6589 24.9117 23.6069 24.8959 23.5594 24.8704C23.5119 24.845 23.4699 24.8105 23.4358 24.7688C23.4016 24.7272 23.376 24.6792 23.3604 24.6277C23.3066 24.4505 23.2494 24.2751 23.1886 24.1015C23.1575 24.0002 23.1668 23.8908 23.2146 23.7962C23.2623 23.7015 23.3449 23.6291 23.4449 23.594C23.5449 23.5589 23.6546 23.5639 23.751 23.6079C23.8474 23.6519 23.923 23.7315 23.962 23.8301H23.9625ZM13.8729 3.17414C13.8397 3.07086 13.8488 2.95863 13.8981 2.86201C13.9474 2.76539 14.033 2.69222 14.1361 2.65852C14.574 2.51932 15.039 2.48791 15.4916 2.56695C15.9442 2.64599 16.371 2.83314 16.7358 3.1125C16.8228 3.17777 16.8803 3.27493 16.8957 3.38262C16.9111 3.49031 16.8831 3.59969 16.8178 3.68672C16.7526 3.77374 16.6554 3.83127 16.5477 3.84666C16.44 3.86204 16.3306 3.83402 16.2436 3.76875C15.9845 3.56793 15.6806 3.43288 15.3579 3.37516C15.0352 3.31745 14.7033 3.33878 14.3906 3.43734C14.3394 3.4541 14.2853 3.46058 14.2315 3.45641C14.1777 3.45225 14.1253 3.43752 14.0772 3.41308C14.0291 3.38863 13.9863 3.35495 13.9513 3.31395C13.9162 3.27295 13.8896 3.22544 13.8729 3.17414ZM17.8903 16.8898C17.9614 16.972 17.997 17.0791 17.9892 17.1876C17.9815 17.296 17.931 17.397 17.8488 17.4682C17.0688 18.1801 16.0559 18.5831 15 18.6019C13.9441 18.5831 12.9313 18.1801 12.1512 17.4682C12.11 17.4331 12.0762 17.3901 12.0517 17.3419C12.0272 17.2936 12.0125 17.241 12.0084 17.187C12.0043 17.133 12.011 17.0788 12.028 17.0274C12.045 16.976 12.072 16.9285 12.1074 16.8876C12.1429 16.8467 12.1861 16.8132 12.2345 16.7891C12.283 16.7649 12.3357 16.7506 12.3897 16.747C12.4437 16.7433 12.4979 16.7504 12.5492 16.7678C12.6004 16.7852 12.6477 16.8125 12.6884 16.8483C13.32 17.4298 14.1417 17.7615 15 17.7816C15.8583 17.7615 16.68 17.4298 17.3116 16.8483C17.3524 16.813 17.3996 16.786 17.4507 16.769C17.5019 16.752 17.5558 16.7452 17.6096 16.749C17.6633 16.7529 17.7158 16.7673 17.764 16.7915C17.8121 16.8156 17.8551 16.849 17.8903 16.8898ZM19.752 12.8651C19.8175 12.9519 19.8459 13.0612 19.8308 13.1689C19.8158 13.2766 19.7586 13.374 19.6718 13.4395C19.3488 13.6833 18.9661 13.8353 18.5639 13.8797C18.4823 13.8886 18.4003 13.893 18.3183 13.893C17.997 13.8931 17.6794 13.8243 17.3869 13.6912C17.3379 13.669 17.2937 13.6372 17.2569 13.5978C17.2202 13.5585 17.1915 13.5123 17.1726 13.4618C17.1537 13.4114 17.1449 13.3577 17.1468 13.3039C17.1486 13.2501 17.161 13.1971 17.1833 13.1481C17.2056 13.0991 17.2374 13.0549 17.2767 13.0181C17.3161 12.9814 17.3623 12.9527 17.4128 12.9338C17.4632 12.9149 17.5169 12.9061 17.5707 12.908C17.6245 12.9098 17.6775 12.9222 17.7265 12.9445C17.9603 13.051 18.2186 13.0924 18.474 13.0643C18.7294 13.0362 18.9724 12.9397 19.1775 12.7849C19.2205 12.7524 19.2694 12.7287 19.3216 12.7152C19.3737 12.7016 19.428 12.6985 19.4813 12.7059C19.5347 12.7134 19.5861 12.7313 19.6325 12.7586C19.6789 12.7859 19.7195 12.8221 19.752 12.8651ZM12.6131 13.6912C12.3206 13.8243 12.003 13.8931 11.6817 13.893C11.5997 13.893 11.5177 13.8886 11.4361 13.8797C11.0339 13.8353 10.6512 13.6833 10.3282 13.4395C10.2426 13.3735 10.1866 13.2765 10.1722 13.1694C10.1578 13.0623 10.1863 12.9538 10.2514 12.8676C10.3165 12.7813 10.413 12.7243 10.5199 12.7088C10.6269 12.6933 10.7356 12.7207 10.8225 12.7849C11.0276 12.9397 11.2707 13.0362 11.5261 13.0643C11.7815 13.0924 12.0397 13.051 12.2735 12.9445C12.3725 12.8995 12.4854 12.8956 12.5873 12.9338C12.6891 12.972 12.7717 13.0491 12.8167 13.1481C12.8617 13.2471 12.8656 13.36 12.8274 13.4618C12.7892 13.5637 12.7122 13.6462 12.6131 13.6912Z" fill="black"/>
</svg>
