<svg width="36" height="36" viewBox="0 0 36 36" fill="none" xmlns="http://www.w3.org/2000/svg">
<path d="M29.3392 21.0701C29.7892 20.4438 29.9138 19.4887 29.6744 18.5155C29.5866 17.9623 29.6006 17.3976 29.7158 16.8494C29.8263 16.0546 29.952 15.1538 29.587 14.2987C29.5182 14.1171 29.4112 13.9524 29.2732 13.8157C29.1352 13.6791 28.9694 13.5737 28.7871 13.5067C28.4639 13.4057 28.1171 13.409 27.7959 13.5163C27.2899 10.7413 25.7181 8.2744 23.4169 6.64313C23.4056 6.52219 23.3916 6.40406 23.3747 6.29156C22.9613 3.42 20.7 1.33594 18 1.33594C17.1287 1.33818 16.2722 1.56173 15.5109 1.98562C15.3968 2.04903 15.3126 2.15517 15.2767 2.2807C15.2408 2.40624 15.2563 2.54087 15.3197 2.655C15.3831 2.76913 15.4892 2.85339 15.6148 2.88926C15.7403 2.92512 15.8749 2.90965 15.9891 2.84625C16.6029 2.50066 17.2956 2.3195 18 2.32031C20.0644 2.32031 21.8194 3.83625 22.3172 5.98781C20.9819 5.30206 19.5025 4.94436 18.0014 4.94436C16.5004 4.94436 15.0209 5.30206 13.6856 5.98781C13.8513 5.2636 14.176 4.58533 14.6363 4.00219C14.7148 3.89975 14.7499 3.77058 14.7342 3.64248C14.7184 3.51437 14.653 3.39757 14.552 3.31721C14.451 3.23685 14.3225 3.19936 14.1941 3.2128C14.0658 3.22623 13.9478 3.28953 13.8656 3.38906C13.203 4.22889 12.775 5.22949 12.6253 6.28875C12.6084 6.40406 12.5944 6.51938 12.5859 6.64313H12.5831C10.2819 8.2744 8.71016 10.7413 8.20407 13.5163C7.88287 13.4093 7.53616 13.406 7.21295 13.5067C7.03045 13.5737 6.8645 13.6792 6.72639 13.816C6.58827 13.9528 6.48122 14.1177 6.41251 14.2996C6.04689 15.1537 6.17345 16.0546 6.28398 16.8494C6.39917 17.3976 6.41318 17.9623 6.32532 18.5155C6.08598 19.4887 6.21142 20.4438 6.66057 21.0701C6.81286 21.2874 7.01175 21.468 7.24274 21.5986C7.47372 21.7292 7.73096 21.8065 7.99567 21.825C8.02689 21.8275 8.0581 21.8289 8.09017 21.8289C8.56854 21.7892 9.02372 21.6057 9.39601 21.3027C9.74416 21.9372 10.156 22.5347 10.6251 23.0858C8.52239 25.276 7.12012 28.0432 6.59729 31.034C6.40628 32.069 6.31053 33.1194 6.31126 34.1719C6.31134 34.3024 6.36321 34.4275 6.4555 34.5198C6.54779 34.6121 6.67293 34.664 6.80345 34.6641H29.1966C29.3271 34.664 29.4522 34.6121 29.5445 34.5198C29.6368 34.4275 29.6887 34.3024 29.6888 34.1719C29.6897 33.0584 29.5826 31.9476 29.369 30.8548C29.3575 30.7905 29.3333 30.7292 29.2978 30.6743C29.2623 30.6194 29.2163 30.5722 29.1624 30.5353C29.1084 30.4985 29.0477 30.4727 28.9838 30.4595C28.9198 30.4463 28.8538 30.446 28.7897 30.4586C28.7256 30.4712 28.6647 30.4964 28.6104 30.5328C28.5561 30.5692 28.5097 30.616 28.4737 30.6705C28.4377 30.725 28.413 30.7862 28.4008 30.8503C28.3887 30.9145 28.3895 30.9805 28.4032 31.0444C28.5731 31.9133 28.6714 32.7947 28.6971 33.6797H7.30295C7.32431 32.9961 7.38866 32.3145 7.4956 31.6389C7.96979 31.6628 8.45664 31.6808 8.96204 31.6808C12.7367 31.6808 17.1892 30.834 19.5204 26.4777C21.4815 26.1419 23.2915 25.2103 24.7044 23.8095C25.6917 24.8366 26.5136 26.0107 27.1406 27.29C27.1984 27.4071 27.3003 27.4965 27.4239 27.5384C27.5475 27.5804 27.6828 27.5716 27.7999 27.5138C27.917 27.4561 28.0064 27.3542 28.0484 27.2306C28.0903 27.107 28.0815 26.9717 28.0238 26.8546C27.3437 25.4673 26.4497 24.1955 25.3747 23.0858C25.8436 22.5353 26.2553 21.9386 26.6034 21.3047C26.9763 21.6079 27.4322 21.7913 27.9113 21.8306C27.9433 21.8306 27.9751 21.8292 28.0066 21.827C28.2711 21.808 28.5279 21.7302 28.7585 21.5992C28.989 21.4683 29.1874 21.2875 29.3392 21.0701ZM9.94501 11.295C10.666 9.72159 11.8016 8.37406 13.23 7.39687H13.2328C13.2919 7.35469 13.3509 7.31812 13.41 7.27875C14.7787 6.39741 16.3721 5.92875 18 5.92875C19.6279 5.92875 21.2213 6.39741 22.59 7.27875C22.6491 7.31812 22.7081 7.35469 22.7672 7.39687C24.1987 8.37271 25.3357 9.72177 26.055 11.2978V11.3003C25.0544 10.5136 23.7882 10.1447 22.5217 10.271C21.5283 10.3397 20.562 10.6253 19.6909 11.1077C19.1003 11.3982 18.6342 11.628 18 11.628C17.3658 11.628 16.8995 11.3982 16.3091 11.1077C15.4382 10.6253 14.4721 10.3397 13.4789 10.271C12.2098 10.1447 10.9411 10.5152 9.93939 11.3046L9.9422 11.2978C9.94294 11.2978 9.94366 11.2975 9.94419 11.297C9.94471 11.2965 9.94501 11.2957 9.94501 11.295ZM8.07751 20.8451C7.9549 20.8381 7.83554 20.803 7.72861 20.7426C7.62169 20.6822 7.53004 20.598 7.46073 20.4967C7.18117 20.1068 7.11254 19.4375 7.28129 18.7501C7.40403 18.0761 7.39659 17.3848 7.25935 16.7136C7.15726 15.9809 7.06079 15.2888 7.31785 14.6869C7.4056 14.4821 7.50404 14.4478 7.53639 14.4366C7.71214 14.403 7.89404 14.4271 8.05501 14.5052C8.01016 14.9261 7.98763 15.3492 7.98751 15.7725C7.9832 17.3684 8.31255 18.9475 8.95445 20.4086C8.38126 20.8406 8.12645 20.8485 8.07751 20.8451ZM7.67814 30.6647C8.22592 28.0877 9.47912 25.7136 11.2978 23.8075C13.0775 25.584 15.4855 26.5875 18 26.6006C18.1041 26.6006 18.2079 26.5978 18.3119 26.595C15.8476 30.4484 11.2323 30.8278 7.67814 30.6647ZM19.1616 25.5347H19.1588C19.1422 25.5347 19.1259 25.5392 19.1093 25.5423C19.098 25.5451 19.084 25.5451 19.0727 25.5479C18.7173 25.5931 18.3594 25.6157 18.0011 25.6154C13.023 25.6154 8.97301 21.1998 8.97301 15.7717C8.97265 15.2882 9.00459 14.8052 9.06864 14.326C9.07145 14.3148 9.07145 14.3035 9.07426 14.2923C9.07382 14.2874 9.0748 14.2825 9.07707 14.2782C9.89579 12.1075 11.3144 11.1167 13.417 11.2528C14.2806 11.3154 15.1199 11.567 15.8754 11.99C16.5221 12.3681 17.2516 12.5818 18 12.6124C18.7488 12.5822 19.4787 12.3687 20.1257 11.9905C20.8813 11.5675 21.7207 11.3159 22.5844 11.2534C24.6876 11.1167 26.1048 12.1084 26.9238 14.2788C26.9261 14.2851 26.9271 14.2918 26.9266 14.2985C26.9938 14.7868 27.0276 15.2792 27.0279 15.7722C27.0281 20.7703 23.5941 24.9103 19.1616 25.5347ZM28.7187 18.7501C28.8875 19.4375 28.8189 20.1068 28.5393 20.4967C28.4703 20.5977 28.3791 20.6816 28.2727 20.742C28.1663 20.8024 28.0475 20.8377 27.9253 20.8451C27.8761 20.8491 27.6202 20.8412 27.0456 20.4086C27.6875 18.9475 28.0168 17.3684 28.0125 15.7725C28.0123 15.3491 27.9898 14.926 27.9453 14.5049C28.1062 14.427 28.288 14.403 28.4636 14.4366C28.496 14.4478 28.5944 14.4821 28.6819 14.686C28.9392 15.2887 28.8428 15.9798 28.7407 16.7136C28.6034 17.3848 28.596 18.0761 28.7187 18.7501ZM28.755 28.5961C28.8328 28.8175 28.906 29.0415 28.9747 29.268C28.9934 29.3299 28.9998 29.3948 28.9934 29.4591C28.987 29.5235 28.968 29.5859 28.9375 29.6429C28.907 29.6999 28.8656 29.7503 28.8156 29.7913C28.7656 29.8322 28.708 29.863 28.6462 29.8817C28.5843 29.9004 28.5194 29.9068 28.455 29.9004C28.3907 29.894 28.3283 29.875 28.2713 29.8445C28.2143 29.814 28.1639 29.7726 28.1229 29.7226C28.0819 29.6726 28.0512 29.6151 28.0325 29.5532C27.968 29.3406 27.8993 29.1301 27.8263 28.9218C27.789 28.8002 27.8001 28.6689 27.8575 28.5554C27.9148 28.4419 28.0138 28.3549 28.1338 28.3128C28.2538 28.2707 28.3855 28.2767 28.5012 28.3295C28.6169 28.3823 28.7076 28.4778 28.7544 28.5961H28.755ZM16.6475 3.80897C16.6077 3.68503 16.6185 3.55036 16.6777 3.43441C16.7369 3.31846 16.8396 3.23067 16.9633 3.19022C17.4888 3.02319 18.0468 2.98549 18.5899 3.08034C19.133 3.17518 19.6452 3.39977 20.0829 3.735C20.1874 3.81332 20.2564 3.92992 20.2749 4.05914C20.2933 4.18837 20.2597 4.31963 20.1814 4.42406C20.1031 4.52849 19.9865 4.59753 19.8572 4.61599C19.728 4.63445 19.5968 4.60082 19.4923 4.5225C19.1814 4.28151 18.8167 4.11945 18.4295 4.05019C18.0422 3.98094 17.6439 4.00654 17.2688 4.12481C17.2072 4.14492 17.1423 4.15269 17.0778 4.1477C17.0133 4.1427 16.9503 4.12503 16.8926 4.09569C16.8349 4.06636 16.7836 4.02594 16.7415 3.97674C16.6994 3.92754 16.6675 3.87053 16.6475 3.80897ZM21.4684 20.2677C21.5537 20.3664 21.5964 20.4949 21.5871 20.6251C21.5778 20.7552 21.5172 20.8763 21.4186 20.9618C20.4825 21.8161 19.2671 22.2997 18 22.3222C16.7329 22.2997 15.5175 21.8161 14.5814 20.9618C14.532 20.9197 14.4914 20.8682 14.462 20.8102C14.4326 20.7523 14.415 20.6892 14.4101 20.6244C14.4052 20.5596 14.4132 20.4945 14.4336 20.4329C14.454 20.3712 14.4864 20.3142 14.5289 20.2651C14.5715 20.216 14.6233 20.1758 14.6814 20.1469C14.7396 20.1179 14.8029 20.1008 14.8677 20.0964C14.9325 20.092 14.9975 20.1005 15.059 20.1213C15.1205 20.1422 15.1773 20.175 15.226 20.2179C15.984 20.9157 16.97 21.3138 18 21.3379C19.03 21.3138 20.016 20.9157 20.774 20.2179C20.8228 20.1756 20.8795 20.1432 20.9409 20.1228C21.0022 20.1024 21.067 20.0942 21.1315 20.0989C21.196 20.1035 21.259 20.1208 21.3168 20.1497C21.3746 20.1787 21.4261 20.2188 21.4684 20.2677ZM23.7024 15.4381C23.781 15.5423 23.8151 15.6734 23.797 15.8027C23.779 15.932 23.7103 16.0488 23.6062 16.1274C23.2186 16.4199 22.7593 16.6024 22.2767 16.6556C22.1788 16.6663 22.0804 16.6716 21.9819 16.6717C21.5964 16.6717 21.2153 16.5891 20.8643 16.4295C20.8054 16.4027 20.7524 16.3647 20.7083 16.3174C20.6642 16.2702 20.6298 16.2147 20.6071 16.1542C20.5845 16.0937 20.5739 16.0293 20.5761 15.9647C20.5783 15.9001 20.5932 15.8365 20.62 15.7777C20.6468 15.7189 20.6848 15.6659 20.7321 15.6218C20.7793 15.5776 20.8348 15.5433 20.8953 15.5206C20.9558 15.4979 21.0202 15.4874 21.0848 15.4896C21.1494 15.4918 21.213 15.5067 21.2718 15.5334C21.5524 15.6612 21.8623 15.7109 22.1688 15.6772C22.4752 15.6435 22.7669 15.5276 23.013 15.3419C23.0646 15.3029 23.1233 15.2745 23.1859 15.2582C23.2484 15.242 23.3136 15.2382 23.3776 15.2471C23.4416 15.2561 23.5033 15.2775 23.559 15.3103C23.6147 15.3431 23.6634 15.3865 23.7024 15.4381ZM15.1358 16.4295C14.7848 16.5891 14.4037 16.6717 14.0181 16.6717C13.9196 16.6716 13.8212 16.6663 13.7233 16.6556C13.2407 16.6024 12.7814 16.4199 12.3939 16.1274C12.2912 16.0482 12.2239 15.9317 12.2066 15.8032C12.1894 15.6747 12.2235 15.5446 12.3016 15.4411C12.3798 15.3376 12.4956 15.2692 12.6239 15.2506C12.7523 15.232 12.8827 15.2648 12.987 15.3419C13.2331 15.5276 13.5248 15.6435 13.8313 15.6772C14.1377 15.7109 14.4476 15.6612 14.7282 15.5334C14.8471 15.4794 14.9825 15.4748 15.1047 15.5206C15.227 15.5664 15.326 15.6589 15.38 15.7777C15.4341 15.8965 15.4387 16.032 15.3929 16.1542C15.3471 16.2764 15.2546 16.3755 15.1358 16.4295Z" fill="#333333"/>
</svg>
