<svg width="512" height="512" viewBox="0 0 512 512" fill="none" xmlns="http://www.w3.org/2000/svg">
<g opacity="0.64" clip-path="url(#clip0)">
<path d="M86.685 391.132C83.795 386.45 77.661 384.985 72.963 387.853C68.25 390.733 66.765 396.887 69.645 401.6C69.668 401.638 69.74 401.753 69.764 401.791C71.662 404.806 74.901 406.453 78.214 406.453C80.037 406.453 81.883 405.955 83.542 404.911C88.208 401.974 89.606 395.803 86.685 391.132Z" fill="url(#paint0_linear)"/>
<path d="M508.83 197.348C502.666 168.203 487.941 142.008 466.242 121.596C440.966 97.818 407.955 83.857 373.288 82.285C348.267 81.15 323.521 86.524 301.414 97.644C317.663 75.552 342.489 60.553 370.705 57.098C383.479 55.534 393.111 44.587 393.111 31.637C393.111 24.284 389.95 17.273 384.441 12.402C378.927 7.52802 371.578 5.25602 364.276 6.15202C332.148 10.122 302.596 23.978 278.817 46.222C271.181 53.365 264.379 61.168 258.442 69.51C255.874 62.73 252.083 54.91 246.504 47.103C232.783 27.896 205.347 4.99902 152.562 4.99902C149.622 4.99902 146.83 6.29302 144.931 8.53702C143.031 10.781 142.215 13.748 142.7 16.646C147.984 48.252 161.381 71.638 182.522 86.153C183.248 86.651 183.977 87.13 184.709 87.599C169.87 83.414 154.35 81.576 138.713 82.285C104.046 83.857 71.034 97.818 45.759 121.596C24.061 142.007 9.33503 168.202 3.17203 197.348C-2.99197 226.494 -0.128974 256.406 11.448 283.855L22.736 310.619C31.492 331.377 41.334 351.787 51.99 371.278C54.639 376.124 60.715 377.903 65.56 375.256C70.406 372.607 72.186 366.531 69.538 361.686C59.205 342.784 49.658 322.988 41.163 302.848L29.875 276.084C9.63103 228.087 21.521 171.858 59.463 136.162C104.863 93.453 173.438 90.343 222.518 128.769L229.743 134.426C245.206 146.53 266.803 146.53 282.266 134.426L289.491 128.769C338.57 90.343 407.145 93.454 452.546 136.162C490.488 171.856 502.378 228.086 482.134 276.084L470.846 302.847C449.189 354.195 421.467 401.726 388.454 444.121C387.13 445.82 385.798 447.515 384.459 449.201L374.832 461.325C361.875 477.643 342.495 487.002 321.658 487.002C303.481 487.002 285.773 479.543 273.074 466.535C268.547 461.898 262.485 459.346 256.004 459.346C249.523 459.346 243.462 461.9 238.934 466.536C226.235 479.543 208.528 487.002 190.35 487.002C169.514 487.002 150.132 477.644 137.176 461.325L127.55 449.203C126.21 447.515 124.878 445.82 123.555 444.123C118.125 437.15 112.768 429.942 107.632 422.701C104.437 418.196 98.196 417.133 93.691 420.33C89.186 423.524 88.125 429.766 91.319 434.27C96.627 441.753 102.163 449.203 107.777 456.411C109.138 458.159 110.508 459.9 111.886 461.638L121.513 473.762C138.283 494.885 163.373 507 190.346 507C213.877 507 236.8 497.344 253.239 480.506C254.227 479.493 255.392 479.343 255.999 479.343C256.606 479.343 257.771 479.493 258.759 480.505C275.197 497.344 298.12 507 321.651 507C348.625 507 373.714 494.885 390.486 473.762L400.114 461.636C401.491 459.901 402.861 458.159 404.224 456.409C438.315 412.631 466.927 363.58 489.265 310.618L500.553 283.856C512.131 256.406 514.993 226.493 508.83 197.348ZM236.613 114.41L234.84 113.022C228.419 107.994 221.617 103.553 214.526 99.709C223.093 101.563 231.112 102.142 237.756 102.142C238.82 102.142 239.839 102.124 240.829 102.098C239.252 106.129 237.846 110.234 236.613 114.41ZM193.838 69.666C180.031 60.187 170.375 45.365 165.042 25.507C219.641 30.109 236.58 64.733 241.671 82.073C230.165 82.565 210.701 81.243 193.838 69.666ZM267.623 120.245C263.7 122.608 259.248 123.676 254.838 123.449C268.71 71.366 312.635 32.683 366.725 26C368.94 25.727 370.476 26.75 371.194 27.385C371.911 28.019 373.112 29.413 373.112 31.639C373.112 34.5 371.031 36.912 368.273 37.25C321.327 42.995 282.203 75.408 267.623 120.245Z" fill="url(#paint1_linear)"/>
<path d="M439.391 150.138C435.368 146.352 429.041 146.547 425.256 150.57C421.472 154.592 421.665 160.92 425.688 164.704C451.761 189.232 459.932 227.872 446.02 260.853L434.733 287.615C429.478 300.072 423.769 312.452 417.762 324.411C415.283 329.347 417.275 335.355 422.21 337.835C423.65 338.558 425.182 338.9 426.69 338.9C430.352 338.9 433.877 336.881 435.633 333.386C441.837 321.033 447.734 308.249 453.159 295.387L464.447 268.625C481.591 227.981 471.522 180.364 439.391 150.138Z" fill="url(#paint2_linear)"/>
<path d="M410.56 359.263C405.848 356.386 399.693 357.869 396.814 362.581L396.687 362.793C393.864 367.54 395.425 373.673 400.172 376.496C401.774 377.449 403.535 377.902 405.272 377.902C408.684 377.902 412.008 376.155 413.878 373.01C416.757 368.297 415.272 362.143 410.56 359.263Z" fill="url(#paint3_linear)"/>
</g>
<defs>
<linearGradient id="paint0_linear" x1="78.1931" y1="386.386" x2="78.1931" y2="406.453" gradientUnits="userSpaceOnUse">
<stop stop-color="#671EAA"/>
<stop offset="1" stop-color="#AD6FE6" stop-opacity="0.9983"/>
</linearGradient>
<linearGradient id="paint1_linear" x1="256.001" y1="4.99902" x2="256.001" y2="507" gradientUnits="userSpaceOnUse">
<stop stop-color="#671EAA"/>
<stop offset="1" stop-color="#AD6FE6" stop-opacity="0.9983"/>
</linearGradient>
<linearGradient id="paint2_linear" x1="444.706" y1="147.421" x2="444.706" y2="338.9" gradientUnits="userSpaceOnUse">
<stop stop-color="#671EAA"/>
<stop offset="1" stop-color="#AD6FE6" stop-opacity="0.9983"/>
</linearGradient>
<linearGradient id="paint3_linear" x1="405.313" y1="357.796" x2="405.313" y2="377.902" gradientUnits="userSpaceOnUse">
<stop stop-color="#671EAA"/>
<stop offset="1" stop-color="#AD6FE6" stop-opacity="0.9983"/>
</linearGradient>
<clipPath id="clip0">
<rect width="511.999" height="511.999" fill="white"/>
</clipPath>
</defs>
</svg>
